# xmcd
#
# Track frame offsets:
#	150
#	25638
#	42005
#	61377
#	88055
#	109332
#	130120
#	159335
#	184349
#	207832
#	232679
#	256719
#	282799
#
# Disc length: 4147 seconds
#
# Revision: 0
# Processed by: cddbd v1.5.2PL0 Copyright (c) Steve Scherf et al.
# Submitted via: audiograbber 1.83.01
#
DISCID=a110310d
DTITLE=Guy Forsyth - Unrepentant Schizophrenic America CD 2-2 (Heads)
DYEAR=2006
DGENRE=Blues
TTITLE0=Calico Girl
TTITLE1=Faith
TTITLE2=Take Advantage Of You
TTITLE3=Adam's Rib
TTITLE4=Teeth
TTITLE5=Death Gonna Hunt You Down
TTITLE6=Red Letter Bible
TTITLE7=Children Of Jack
TTITLE8=Needle Gun
TTITLE9=Mama's Favorite
TTITLE10=Tattletale
TTITLE11=This Is Hip
TTITLE12=Goin' To The Church
EXTD=
EXTT0=
EXTT1=
EXTT2=
EXTT3=
EXTT4=
EXTT5=
EXTT6=
EXTT7=
EXTT8=
EXTT9=
EXTT10=
EXTT11=
EXTT12=
PLAYORDER=
